<svg width="588" height="555" viewBox="0 0 588 555" fill="none" xmlns="http://www.w3.org/2000/svg">
<path fill-rule="evenodd" clip-rule="evenodd" d="M181.345 20.3661C122.956 12.3067 68.5903 52.8764 59.9143 110.981L20.6437 373.979C11.9677 432.085 52.2666 485.721 110.656 493.781L406.624 534.634C465.012 542.693 519.379 502.123 528.055 444.018L567.325 181.019C576.001 122.915 535.703 69.2782 477.313 61.2188L181.345 20.3661ZM40.6597 108.323C50.9158 39.637 115.184 -8.321 184.206 1.20597L480.174 42.0588C549.196 51.5858 596.834 114.991 586.578 183.677L547.308 446.675C537.051 515.363 472.785 563.321 403.763 553.794L107.795 512.94C38.7733 503.413 -8.86698 440.009 1.38912 371.323L40.6597 108.323Z" fill="white"/>
<path fill-rule="evenodd" clip-rule="evenodd" d="M324.185 194.485L373.341 217.143L373.04 424.549L423.763 424.622L424.114 183.943L324.185 133.507V194.485Z" fill="white"/>
<path fill-rule="evenodd" clip-rule="evenodd" d="M324.185 78.6493L166.925 156.958L166.536 424.257L220.498 424.334L220.649 321.185L273.531 321.262L273.381 424.41L324.106 424.484L324.185 370.529V78.6493ZM271.451 265.782L219.648 265.707L219.766 184.742L271.605 159.306L271.451 265.782Z" fill="white"/>
</svg>
